<svg id="Layer_1" data-name="Layer 1" xmlns="http://www.w3.org/2000/svg" xmlns:xlink="http://www.w3.org/1999/xlink" viewBox="0 0 312.72 312.72"><defs><style>.cls-1{fill:none;}.cls-2{fill:#f15a22;}.cls-3{fill:#fff;}.cls-4{clip-path:url(#clip-path);}.cls-5,.cls-6{fill:#a81913;}.cls-6{stroke:#a81913;stroke-miterlimit:10;stroke-width:2.56px;}</style><clipPath id="clip-path"><circle class="cls-1" cx="156.36" cy="156.36" r="156.36"/></clipPath></defs><circle class="cls-2" cx="156.36" cy="156.36" r="156.36"/><path class="cls-3" d="M69.74,146.4V135.62l8.61-1c1.91-.27,2.18-.68,2.18-2.73V62c0-2-.27-2.6-2.18-2.73l-8.61-1V47.53h45.48V58.32l-11.33,1.09c-2,.14-2.19.68-2.19,2.6v69.78H126c1.5,0,1.91-.13,2.18-1.5l2.19-13.66h15V146.4Z"/><circle class="cls-3" cx="164.24" cy="137.24" r="9"/><g class="cls-4"><path class="cls-5" d="M285.88,290.52H140c-1.51,0-3,0-4.52,0a7.22,7.22,0,0,1-7.24-7.55c0-6.88,0-13.76,0-20.64V176.38a45.63,45.63,0,0,1,0-5.23c0,.43.06-.27.08-.36a7.62,7.62,0,0,1,.22-.82,3.41,3.41,0,0,1,.46-1.09,6.54,6.54,0,0,1,1.75-2.18,7.32,7.32,0,0,1,4.57-1.64H285.79a7.17,7.17,0,0,1,7.22,7.62V282.46a16.37,16.37,0,0,1-.06,2c0-.15.09-.43,0,.19-.06.28-.13.55-.2.82s-.17.53-.27.79c.14-.35-.08.14-.09.17a6.41,6.41,0,0,1-1.66,2.25,7.34,7.34,0,0,1-4.81,1.86c-3.95.07-4,6.22,0,6.15a13.46,13.46,0,0,0,12.37-8.49,14.36,14.36,0,0,0,.91-5.36V175.23c0-3.25,0-6.29-1.57-9.31a13.46,13.46,0,0,0-11.72-7H136.2c-.45,0-.91,0-1.36,0a13.48,13.48,0,0,0-12,8.94c-.91,2.49-.73,5.18-.73,7.78V276c0,2.33,0,4.66,0,7a13.47,13.47,0,0,0,13.29,13.66c4.6.07,9.2,0,13.8,0h136.7C289.84,296.67,289.85,290.52,285.88,290.52Z"/><path class="cls-5" d="M125.16,207.66h164c2.22,0,4.44.06,6.66,0h.28c4,0,4-6.15,0-6.15h-164c-2.21,0-4.44-.06-6.65,0h-.29c-4,0-4,6.15,0,6.15Z"/><path class="cls-5" d="M170.88,187.28H257.8c4,0,8,.14,12,0H270c4,0,4-6.15,0-6.15H183.1c-4,0-8-.14-12,0h-.18c-4,0-4,6.15,0,6.15Z"/><path class="cls-5" d="M151.23,187.28c4,0,4-6.15,0-6.15s-4,6.15,0,6.15Z"/><path class="cls-5" d="M172.93,236.92l-16.36,8.18-2.32,1.16a3.09,3.09,0,0,0,0,5.31l16.36,8.18,2.32,1.16a3.08,3.08,0,0,0,3.1-5.32l-16.35-8.18-2.32-1.15v5.31l16.36-8.18,2.31-1.16a3.09,3.09,0,0,0,1.11-4.21,3.16,3.16,0,0,0-4.21-1.1Z"/><path class="cls-5" d="M248.32,260.91l16.36-8.18,2.31-1.16a3.09,3.09,0,0,0,0-5.31l-16.35-8.18-2.32-1.16a3.08,3.08,0,1,0-3.11,5.31l16.36,8.18,2.32,1.16v-5.31l-16.36,8.17-2.32,1.16a3.1,3.1,0,0,0-1.1,4.21,3.15,3.15,0,0,0,4.21,1.11Z"/><path class="cls-6" d="M220.91,280.88H200.19a4.67,4.67,0,0,1-4.64-4.64V262.91h30v13.33A4.66,4.66,0,0,1,220.91,280.88Zm-22-14.63v9.85a1.3,1.3,0,0,0,1.3,1.3h20.72a1.31,1.31,0,0,0,1.31-1.3v-9.85Z"/><path class="cls-6" d="M223.81,266.25h-.43a1.65,1.65,0,0,1-1.16-2l4.6-18.15a4.22,4.22,0,0,0-.61-3.43l-13.16-19.29a3.11,3.11,0,0,0-5.14,0l-13,19.14a4.27,4.27,0,0,0-.61,3.42l4.61,18.15a1.65,1.65,0,0,1-3.19.87l-4.9-19.61a4.22,4.22,0,0,1,.59-3.4L207,218.81a4.23,4.23,0,0,1,7,0l15.84,23.14a4.27,4.27,0,0,1,.61,3.42l-4.9,19.6A1.87,1.87,0,0,1,223.81,266.25Z"/><path class="cls-6" d="M210.48,266.25a1.77,1.77,0,0,1-1.74-1.74V249.15a1.74,1.74,0,0,1,3.48,0v15.36A1.68,1.68,0,0,1,210.48,266.25Z"/><path class="cls-6" d="M212.53,250.59a7.25,7.25,0,1,1,5.11-5.83A7.27,7.27,0,0,1,212.53,250.59Zm-2.05-10.72a3.77,3.77,0,1,0,3.77,3.77A3.66,3.66,0,0,0,210.48,239.87Z"/></g></svg>