<svg id="Layer_1" data-name="Layer 1" xmlns="http://www.w3.org/2000/svg" viewBox="0 0 500 500"><defs><style>.cls-1{fill:none;}.cls-1,.cls-2{stroke:#f7931e;stroke-miterlimit:10;stroke-width:3px;}.cls-2{fill:#fff;}.cls-3{fill:#f7931e;}</style></defs><circle class="cls-1" cx="146.46" cy="112.03" r="21.91"/><rect class="cls-1" x="45.83" y="60.92" width="408.33" height="324.66" rx="13.94"/><line class="cls-1" x1="250" y1="367.67" x2="250" y2="61.75"/><line class="cls-1" x1="45.83" y1="213.62" x2="454.17" y2="213.62"/><path class="cls-1" d="M132.25,142.24h28.41a24.6,24.6,0,0,1,24.6,24.6v46.78a0,0,0,0,1,0,0h-77.6a0,0,0,0,1,0,0V166.84A24.6,24.6,0,0,1,132.25,142.24Z"/><circle class="cls-1" cx="350.96" cy="112.03" r="21.91"/><path class="cls-1" d="M336.75,142.24h28.41a24.6,24.6,0,0,1,24.6,24.6v46.78a0,0,0,0,1,0,0h-77.6a0,0,0,0,1,0,0V166.84A24.6,24.6,0,0,1,336.75,142.24Z"/><circle class="cls-1" cx="146.46" cy="266.05" r="21.91"/><path class="cls-1" d="M132.25,296.26h28.41a24.6,24.6,0,0,1,24.6,24.6v46.78a0,0,0,0,1,0,0h-77.6a0,0,0,0,1,0,0V320.86A24.6,24.6,0,0,1,132.25,296.26Z"/><circle class="cls-1" cx="350.96" cy="266.05" r="21.91"/><path class="cls-1" d="M336.75,296.26h28.41a24.6,24.6,0,0,1,24.6,24.6v46.78a0,0,0,0,1,0,0h-77.6a0,0,0,0,1,0,0V320.86A24.6,24.6,0,0,1,336.75,296.26Z"/><path class="cls-2" d="M200.18,60.92h99.65a0,0,0,0,1,0,0v13a3.8,3.8,0,0,1-3.8,3.8H204a3.8,3.8,0,0,1-3.8-3.8v-13A0,0,0,0,1,200.18,60.92Z"/><path class="cls-3" d="M119,431.44H381a0,0,0,0,1,0,0v4a4.35,4.35,0,0,1-4.35,4.35H123.4a4.35,4.35,0,0,1-4.35-4.35v-4A0,0,0,0,1,119,431.44Z" transform="translate(500 871.28) rotate(180)"/><circle class="cls-3" cx="216.74" cy="69.32" r="3.08"/><circle class="cls-3" cx="361.57" cy="376.96" r="3.08"/><circle class="cls-3" cx="389.76" cy="376.96" r="3.08"/><circle class="cls-3" cx="417.94" cy="376.96" r="3.08"/><rect class="cls-3" x="236.4" y="67.23" width="50.19" height="4.18" rx="2.09"/><rect class="cls-3" x="72.84" y="374.87" width="50.19" height="4.18" rx="2.09"/><rect class="cls-3" x="219.1" y="385.58" width="61.8" height="47.65"/><line class="cls-1" x1="45.83" y1="367.67" x2="454.17" y2="367.67"/></svg>