<?xml version="1.0" encoding="utf-8"?>
<!-- Generator: Adobe Illustrator 25.0.0, SVG Export Plug-In . SVG Version: 6.00 Build 0)  -->
<svg version="1.1" id="Layer_1" xmlns="http://www.w3.org/2000/svg" xmlns:xlink="http://www.w3.org/1999/xlink" x="0px" y="0px"
	 viewBox="0 0 500 500" style="enable-background:new 0 0 500 500;" xml:space="preserve">
<style type="text/css">
	.st0{fill:#F15A22;}
	.st1{fill:none;stroke:#F15A22;stroke-width:6.727;stroke-linecap:round;stroke-linejoin:round;stroke-miterlimit:10;}
	.st2{fill:none;stroke:#F15A22;stroke-width:6.9132;stroke-linecap:round;stroke-linejoin:round;stroke-miterlimit:10;}
	.st3{fill:none;stroke:#F15A22;stroke-width:8;stroke-miterlimit:10;}
	.st4{fill:#FFFFFF;stroke:#F15A22;stroke-width:8;stroke-miterlimit:10;}
	.st5{fill:none;stroke:#F15A22;stroke-width:7.5288;stroke-miterlimit:10;}
	.st6{fill:#F7931E;}
	.st7{fill:none;stroke:#F7931E;stroke-width:3;stroke-linecap:round;stroke-linejoin:round;stroke-miterlimit:10;}
	.st8{fill:none;stroke:#F7931E;stroke-width:3;stroke-miterlimit:10;}
	.st9{fill:#FFFFFF;stroke:#F7931E;stroke-width:3;stroke-miterlimit:10;}
	.st10{fill:#FFFFFF;}
</style>
<circle class="st5" cx="250" cy="250" r="192.16"/>
<ellipse class="st5" cx="250" cy="250" rx="95.44" ry="192.16"/>
<path class="st5" d="M406.75,138.83c-34.82,24.34-92.05,40.22-156.75,40.22c-64.7,0-121.93-15.88-156.75-40.22"/>
<path class="st5" d="M93.25,361.17c34.82-24.34,92.05-40.22,156.75-40.22s121.93,15.88,156.75,40.22"/>
<line class="st5" x1="250" y1="57.84" x2="250" y2="442.16"/>
<line class="st5" x1="57.84" y1="250" x2="442.16" y2="250"/>
<g>
	<path class="st0" d="M400.62,444.49c-1.79,0-3.49-0.85-4.56-2.29l-24.53-32.77l-15.9,22.97c-1.06,1.54-2.81,2.46-4.68,2.46
		c-2.68,0-4.97-1.83-5.56-4.44l-25.51-112.78c-0.38-1.7,0.02-3.45,1.1-4.81c1.09-1.37,2.72-2.15,4.46-2.15
		c0.93,0,1.86,0.23,2.69,0.68l104.41,55.9c2.06,1.1,3.23,3.32,2.98,5.64c-0.25,2.32-1.87,4.24-4.12,4.87l-27.35,7.71l24,32.77
		c1.83,2.5,1.31,6.05-1.17,7.92l-22.82,17.17C403.07,444.09,401.85,444.49,400.62,444.49L400.62,444.49z"/>
	<path class="st10" d="M325.43,315.4c0.15,0,0.31,0.04,0.47,0.12l104.41,55.9c0.79,0.42,0.66,1.59-0.2,1.83l-32.5,9.17
		c-0.67,0.19-0.94,0.98-0.53,1.54l27.15,37.09c0.32,0.44,0.23,1.05-0.2,1.38l-22.82,17.17c-0.18,0.13-0.39,0.2-0.6,0.2
		c-0.3,0-0.6-0.14-0.8-0.4l-27.62-36.9c-0.2-0.27-0.5-0.4-0.8-0.4c-0.31,0-0.62,0.14-0.82,0.43l-18.84,27.21
		c-0.2,0.29-0.51,0.43-0.81,0.43c-0.43,0-0.86-0.28-0.97-0.77l-25.51-112.77C324.31,315.95,324.83,315.4,325.43,315.4
		 M325.43,305.98c-3.18,0-6.14,1.43-8.13,3.92c-1.98,2.48-2.72,5.68-2.02,8.79l25.51,112.77c1.08,4.77,5.26,8.11,10.15,8.11
		c3.41,0,6.61-1.68,8.55-4.48l12.18-17.6l20.61,27.54c1.95,2.61,5.07,4.17,8.33,4.17c2.24,0,4.46-0.74,6.25-2.09l22.82-17.17
		c4.52-3.4,5.48-9.89,2.14-14.46l-19.99-27.31l20.83-5.87c4.11-1.16,7.06-4.65,7.52-8.89c0.46-4.24-1.67-8.28-5.43-10.3
		l-104.41-55.9C328.83,306.41,327.14,305.98,325.43,305.98L325.43,305.98z"/>
</g>
</svg>
