<?xml version="1.0" encoding="utf-8"?>
<!-- Generator: Adobe Illustrator 25.0.0, SVG Export Plug-In . SVG Version: 6.00 Build 0)  -->
<svg version="1.1" id="Layer_1" xmlns="http://www.w3.org/2000/svg" xmlns:xlink="http://www.w3.org/1999/xlink" x="0px" y="0px"
	 viewBox="0 0 500 500" style="enable-background:new 0 0 500 500;" xml:space="preserve">
<style type="text/css">
	.st0{fill:#F15A22;}
	.st1{fill:none;stroke:#F15A22;stroke-width:6.727;stroke-linecap:round;stroke-linejoin:round;stroke-miterlimit:10;}
	.st2{fill:none;stroke:#F15A22;stroke-width:6.9132;stroke-linecap:round;stroke-linejoin:round;stroke-miterlimit:10;}
	.st3{fill:none;stroke:#F15A22;stroke-width:8;stroke-miterlimit:10;}
	.st4{fill:#FFFFFF;stroke:#F15A22;stroke-width:8;stroke-miterlimit:10;}
	.st5{fill:none;stroke:#F15A22;stroke-width:7.5288;stroke-miterlimit:10;}
	.st6{fill:#F7931E;}
	.st7{fill:none;stroke:#F7931E;stroke-width:3;stroke-linecap:round;stroke-linejoin:round;stroke-miterlimit:10;}
	.st8{fill:none;stroke:#F7931E;stroke-width:3;stroke-miterlimit:10;}
	.st9{fill:#FFFFFF;stroke:#F7931E;stroke-width:3;stroke-miterlimit:10;}
	.st10{fill:#FFFFFF;}
</style>
<g>
	<path class="st0" d="M363,107.8L250.76,66.13c-0.49-0.18-1.04-0.19-1.54-0.02L137.06,104.3c-2.04,0.69-2.08,3.56-0.07,4.32
		l41.65,15.59v33.15c0,0.98,0.62,1.85,1.54,2.17l69.07,23.86c0.5,0.17,1.04,0.17,1.54-0.02l69.07-25.45c0.9-0.33,1.5-1.19,1.5-2.15
		V126.4l41.59-14.29C364.98,111.41,365.02,108.54,363,107.8z"/>
	<path class="st1" d="M188.4,158.33c-0.65,6.41-0.42,26.12,0.28,32.51c1.41,13.03,5.3,26.11,13.06,36.52
		c15.68,21,45.48,25.13,68.71,18.91c8.26-2.21,16.03-6.87,22.06-13.21c13.12-13.79,17.53-33.99,18.28-52.91
		c0.12-2.89,0.15-18.92,0.11-21.81"/>
	<path class="st2" d="M379.77,434.01H120.23v-66.15c0-54.48,44.16-98.64,98.64-98.64h62.27c54.48,0,98.64,44.16,98.64,98.64V434.01z
		"/>
	<path class="st0" d="M156.33,111.44l-6.61,83.95c-0.01,0.07,0,0.15,0.03,0.21l5.39,14.44c0.16,0.43,0.77,0.43,0.93,0l5.39-14.44
		c0.02-0.07,0.03-0.14,0.03-0.2L156.33,111.44z"/>
	<circle class="st0" cx="156.11" cy="127.56" r="4.82"/>
</g>
</svg>
