<?xml version="1.0" encoding="utf-8"?>
<!-- Generator: Adobe Illustrator 25.0.0, SVG Export Plug-In . SVG Version: 6.00 Build 0)  -->
<svg version="1.1" id="Layer_1" xmlns="http://www.w3.org/2000/svg" xmlns:xlink="http://www.w3.org/1999/xlink" x="0px" y="0px"
	 viewBox="0 0 500 500" style="enable-background:new 0 0 500 500;" xml:space="preserve">
<style type="text/css">
	.st0{fill:#F15A22;}
	.st1{fill:none;stroke:#F15A22;stroke-width:6.727;stroke-linecap:round;stroke-linejoin:round;stroke-miterlimit:10;}
	.st2{fill:none;stroke:#F15A22;stroke-width:6.9132;stroke-linecap:round;stroke-linejoin:round;stroke-miterlimit:10;}
	.st3{fill:none;stroke:#F15A22;stroke-width:8;stroke-miterlimit:10;}
	.st4{fill:#FFFFFF;stroke:#F15A22;stroke-width:8;stroke-miterlimit:10;}
	.st5{fill:none;stroke:#F15A22;stroke-width:7.5288;stroke-miterlimit:10;}
	.st6{fill:#F7931E;}
	.st7{fill:none;stroke:#F7931E;stroke-width:3;stroke-linecap:round;stroke-linejoin:round;stroke-miterlimit:10;}
	.st8{fill:none;stroke:#F7931E;stroke-width:3;stroke-miterlimit:10;}
	.st9{fill:#FFFFFF;stroke:#F7931E;stroke-width:3;stroke-miterlimit:10;}
	.st10{fill:#FFFFFF;}
</style>
<path class="st3" d="M440.22,385.58H59.78c-7.7,0-13.94-6.24-13.94-13.94V74.86c0-7.7,6.24-13.94,13.94-13.94h380.45
	c7.7,0,13.94,6.24,13.94,13.94v296.77C454.17,379.33,447.92,385.58,440.22,385.58z"/>
<line class="st3" x1="250" y1="360.23" x2="250" y2="61.75"/>
<line class="st3" x1="45.83" y1="213.62" x2="454.17" y2="213.62"/>
<circle class="st3" cx="350.96" cy="118.38" r="21.91"/>
<path class="st3" d="M389.76,213.62h-77.6v-37.43c0-13.58,11.01-24.6,24.6-24.6h28.41c13.58,0,24.6,11.01,24.6,24.6V213.62z"/>
<circle class="st3" cx="146.46" cy="118.38" r="21.91"/>
<path class="st3" d="M185.26,213.62h-77.6v-37.43c0-13.58,11.01-24.6,24.6-24.6h28.41c13.58,0,24.6,11.01,24.6,24.6V213.62z"/>
<circle class="st3" cx="350.96" cy="265" r="21.91"/>
<path class="st3" d="M389.76,360.23h-77.6V322.8c0-13.58,11.01-24.6,24.6-24.6h28.41c13.58,0,24.6,11.01,24.6,24.6V360.23z"/>
<circle class="st3" cx="146.46" cy="265" r="21.91"/>
<path class="st3" d="M185.26,360.23h-77.6V322.8c0-13.58,11.01-24.6,24.6-24.6h28.41c13.58,0,24.6,11.01,24.6,24.6V360.23z"/>
<path class="st4" d="M296.03,84.34h-92.05c-2.1,0-3.8-1.7-3.8-3.8V60.92h99.65v19.63C299.82,82.64,298.12,84.34,296.03,84.34z"/>
<circle class="st0" cx="216.74" cy="72.4" r="3.08"/>
<circle class="st0" cx="361.57" cy="372.87" r="3.08"/>
<circle class="st0" cx="389.76" cy="372.87" r="3.08"/>
<circle class="st0" cx="417.94" cy="372.87" r="3.08"/>
<path class="st0" d="M284.28,74.49h-44c-1.13,0-2.05-0.92-2.05-2.05v-0.09c0-1.13,0.92-2.05,2.05-2.05h44
	c1.13,0,2.05,0.92,2.05,2.05v0.09C286.33,73.58,285.41,74.49,284.28,74.49z"/>
<path class="st0" d="M120.94,374.97h-46c-1.16,0-2.09-0.94-2.09-2.09l0,0c0-1.16,0.94-2.09,2.09-2.09h46c1.16,0,2.09,0.94,2.09,2.09
	l0,0C123.03,374.03,122.09,374.97,120.94,374.97z"/>
<path class="st0" d="M376.6,431.44h-95.7v-45.86h-61.8v45.86h-95.7c-2.4,0-4.35,1.95-4.35,4.35v4.05h261.92v-4.05
	C380.96,433.39,379.01,431.44,376.6,431.44z"/>
<line class="st3" x1="45.83" y1="360.23" x2="454.17" y2="360.23"/>
</svg>
