<svg id="Layer_1" data-name="Layer 1" xmlns="http://www.w3.org/2000/svg" viewBox="0 0 500 500"><defs><style>.cls-1{fill:none;stroke:#f7931e;stroke-miterlimit:10;stroke-width:3px;}.cls-2{fill:#f7931e;}.cls-3{fill:#fff;}</style></defs><circle class="cls-1" cx="250" cy="250" r="204.18"/><ellipse class="cls-1" cx="250" cy="250" rx="101.41" ry="204.18"/><path class="cls-1" d="M416.56,131.87c-37,25.86-97.81,42.74-166.56,42.74S120.44,157.73,83.44,131.87"/><path class="cls-1" d="M83.44,368.13c37-25.86,97.81-42.74,166.56-42.74s129.56,16.88,166.56,42.74"/><line class="cls-1" x1="250" y1="45.82" x2="250" y2="454.18"/><line class="cls-1" x1="45.82" y1="250" x2="454.18" y2="250"/><path class="cls-2" d="M330.41,304.6l29.68,131.22a1.16,1.16,0,0,0,2.08.4l21.92-31.66a1.15,1.15,0,0,1,1.87,0l32.14,42.94a1.16,1.16,0,0,0,1.62.23l26.55-20a1.15,1.15,0,0,0,.23-1.6L414.91,383a1.16,1.16,0,0,1,.62-1.8l37.81-10.66a1.16,1.16,0,0,0,.23-2.14l-121.48-65A1.16,1.16,0,0,0,330.41,304.6Z"/><path class="cls-2" d="M419,452.42a5.67,5.67,0,0,1-4.53-2.27l-29.35-39.21-19.28,27.84a5.66,5.66,0,0,1-10.17-2L326,305.6a5.66,5.66,0,0,1,8.19-6.24l121.49,65a5.66,5.66,0,0,1-1.14,10.43l-33.17,9.35,28.75,39.27a5.69,5.69,0,0,1-1.16,7.86l-26.56,20a5.63,5.63,0,0,1-3.39,1.14Z"/><path class="cls-3" d="M331.54,303.19a1.12,1.12,0,0,1,.55.14l121.48,65a1.16,1.16,0,0,1-.23,2.14l-37.81,10.66a1.16,1.16,0,0,0-.62,1.8l31.59,43.15a1.15,1.15,0,0,1-.23,1.6l-26.55,20a1.19,1.19,0,0,1-.69.23,1.16,1.16,0,0,1-.93-.46L386,404.52a1.13,1.13,0,0,0-.92-.46,1.16,1.16,0,0,0-1,.5l-21.92,31.66a1.14,1.14,0,0,1-.94.5,1.16,1.16,0,0,1-1.14-.9L330.41,304.6a1.16,1.16,0,0,1,1.13-1.41m0-9a10.16,10.16,0,0,0-9.91,12.4L351.31,437.8a10.16,10.16,0,0,0,18.26,3.54l15.72-22.7,25.6,34.21a10.16,10.16,0,0,0,14.24,2l26.55-20a10.2,10.2,0,0,0,2.09-14.12l-24.92-34,26.93-7.6a10.16,10.16,0,0,0,2-18.73l-121.49-65a10.28,10.28,0,0,0-4.79-1.2Z"/></svg>