<svg id="Layer_1" data-name="Layer 1" xmlns="http://www.w3.org/2000/svg" viewBox="0 0 500 500"><defs><style>.cls-1{fill:#f7931e;}.cls-2{fill:none;stroke:#f7931e;stroke-linecap:round;stroke-linejoin:round;stroke-width:3px;}</style></defs><path class="cls-1" d="M249.11,138.52,119.23,89.89a2.65,2.65,0,0,1,.07-5L249.11,40.7a2.69,2.69,0,0,1,1.77,0L380.77,88.94a2.65,2.65,0,0,1-.07,5L250.9,138.55A2.62,2.62,0,0,1,249.11,138.52Z"/><path class="cls-1" d="M167.42,101V146.3a2.66,2.66,0,0,0,1.79,2.51l79.92,27.61a2.65,2.65,0,0,0,1.78,0L330.84,147a2.65,2.65,0,0,0,1.74-2.49V101.8"/><path class="cls-2" d="M174.75,147.42c-.8,7.42-.51,30.22.34,37.62,1.72,15.08,6.47,30.22,16,42.26,19.16,24.3,55.58,29.09,84,21.88a59.2,59.2,0,0,0,27-15.29c16-16,21.42-39.33,22.34-61.23.14-3.35.18-21.89.13-25.24"/><path class="cls-2" d="M214,275.74H286A114.15,114.15,0,0,1,400.18,389.88v76.55a0,0,0,0,1,0,0H99.82a0,0,0,0,1,0,0V389.88A114.15,114.15,0,0,1,214,275.74Z"/><path class="cls-1" d="M141.6,93.16,134,190.31a.52.52,0,0,0,0,.25l6.24,16.71a.58.58,0,0,0,1.08,0l6.24-16.72a.59.59,0,0,0,0-.23Z"/><circle class="cls-1" cx="141.35" cy="111.81" r="5.57"/></svg>