<svg xmlns="http://www.w3.org/2000/svg" viewBox="0 0 491.72 232.98"><defs><style>.cls-1{fill:#f15a22;}.cls-2{fill:none;stroke:#f15a22;stroke-miterlimit:10;stroke-width:2.45px;}</style></defs><g id="Layer_2" data-name="Layer 2"><g id="Layer_1-2" data-name="Layer 1"><path class="cls-1" d="M6.16,206.33v-7.58l7.46-.83c1.66-.23,1.9-.59,1.9-2.36V131.49c0-1.78-.24-2.25-1.9-2.37l-7.46-.83v-7.7H41.1v7.7l-9.83,1c-1.78.12-1.9.59-1.9,2.25v64.78H55.9c1.3,0,1.66-.12,1.9-1.31l1.89-11.25h10v22.62Z"/><path class="cls-1" d="M117.71,206.33l-1.18-7-.36-.11a28.64,28.64,0,0,1-20.84,8.52c-14.92,0-16.93-10.18-16.93-16.81,0-11.85,7.34-17.53,21.79-18.71l15-1.19v-6c0-7.46-1.31-11.49-10.42-11.49-6.52,0-10.9.48-10.9,8.65L81.12,161c0-15.16,13.86-17.06,23.92-17.06,17.17,0,23.57,4.86,23.57,21.2v30.44c0,1.89.12,2.13,1.89,2.36l5.81.83v7.58Zm-2.48-26.64-11.25.94c-8.89.83-11.61,3.32-11.61,9s2.72,7.58,7.58,7.58c5.8,0,11.72-3.55,15.28-7.1Z"/><path class="cls-1" d="M180.48,206.33v-7.46l5.92-.71c1.66-.24,1.89-.95,1.89-2.37V168.32c0-7.11-.83-13-8.41-13-6,0-12.31,3.32-16.22,6.16v34.11c0,1.89.12,2.13,1.89,2.36l6.28.83v7.58H142.46v-7.7l5.69-.71c1.65-.23,1.89-.59,1.89-2.36V157.42c0-1.3-.35-2.13-1.54-2.48L142,152.69l1.18-7.58H160.7l1,6.51.47.12c6.63-4.5,13.62-7.82,22.15-7.82,12.79,0,17.64,8.06,17.64,21.67v30c0,1.89.12,2.13,1.9,2.36l6.51.83v7.58Z"/><path class="cls-1" d="M265.85,154.46a19,19,0,0,1,4.5,12.2c0,13.74-10.89,21.32-24.75,21.32a37.4,37.4,0,0,1-9.94-1.07l-5.45,9,14.57.71c21.07,1.07,31.14,2.13,31.14,16.46,0,12.55-10.89,19.9-31.5,19.9-20.84,0-28.3-5.57-28.3-14.57,0-5.68,3.19-9.12,7.22-12.91-3.91-1.66-5.45-4.5-5.45-7.34,0-2.49,1-4.5,3-6.75s4.39-5.09,6.52-7.34c-5.45-3-9.24-9.12-9.24-17.41,0-13.15,9.24-22.74,26.17-22.74a46.22,46.22,0,0,1,11.13,1.19H277v8.64ZM232.7,208c-2.14,2.25-4.5,5.21-4.5,8.29,0,5.45,6.27,7.22,16.58,7.22,6,0,17.52-.94,17.52-8.52,0-5.21-4.5-5.45-11.37-5.92ZM245,153.51c-7.93,0-13.73,4-13.73,12.91,0,6.75,3.67,11.85,13.38,11.85,8.17,0,13.62-4.74,13.62-12.08C258.28,158,253.3,153.51,245,153.51Z"/><path class="cls-1" d="M319.85,206.33l-1.18-7-.36-.11a28.64,28.64,0,0,1-20.84,8.52c-14.92,0-16.93-10.18-16.93-16.81,0-11.85,7.34-17.53,21.79-18.71l15-1.19v-6c0-7.46-1.31-11.49-10.42-11.49-6.52,0-10.9.48-10.9,8.65L283.26,161c0-15.16,13.86-17.06,23.92-17.06,17.17,0,23.57,4.86,23.57,21.2v30.44c0,1.89.12,2.13,1.89,2.36l5.81.83v7.58Zm-2.48-26.64-11.25.94c-8.89.83-11.61,3.32-11.61,9s2.72,7.58,7.58,7.58c5.8,0,11.72-3.55,15.28-7.1Z"/><path class="cls-1" d="M344.6,206.33v-7.7l5.69-.71c1.65-.23,1.89-.59,1.89-2.36V157.42a2.23,2.23,0,0,0-1.54-2.48l-6.51-2.25,1.18-7.58H363l1.3,8.64.36.12c3.9-5.09,9.47-10,17.4-10a44.07,44.07,0,0,1,9.24,1.07v19.42l-10.66-.47-1.42-7.35c-.12-1.06-.35-1.3-1.42-1.3-4.5,0-9.59,3.91-12,6.16v34c0,1.89.24,2.25,2,2.37l11.13.94v7.58Z"/><path class="cls-1" d="M434.84,206.33l-1.19-7-.35-.11a28.65,28.65,0,0,1-20.84,8.52c-14.93,0-16.94-10.18-16.94-16.81,0-11.85,7.34-17.53,21.79-18.71l15-1.19v-6c0-7.46-1.3-11.49-10.42-11.49-6.51,0-10.89.48-10.89,8.65L398.25,161c0-15.16,13.85-17.06,23.92-17.06,17.17,0,23.56,4.86,23.56,21.2v30.44c0,1.89.12,2.13,1.9,2.36l5.8.83v7.58Zm-2.49-26.64-11.25.94c-8.88.83-11.6,3.32-11.6,9s2.72,7.58,7.57,7.58c5.81,0,11.73-3.55,15.28-7.1Z"/><path class="cls-1" d="M470.13,207.75c-5.81,0-8.77-2.72-8.77-8.17s3-8.17,8.77-8.17,8.64,2.84,8.64,8.17S475.81,207.75,470.13,207.75Z"/><line class="cls-2" y1="93.7" x2="491.72" y2="93.7"/><path class="cls-1" d="M23.91,21.73H18.84L15.74,10a19.2,19.2,0,0,1-.47-2.14c-.13-.75-.25-1.51-.35-2.27h0a26.45,26.45,0,0,1-.8,4.31L11,21.73H6.21L.76.35h4.4L8.08,12.16c.16.7.31,1.41.44,2.14s.24,1.46.35,2.2h0c.1-.72.22-1.43.35-2.14a20.68,20.68,0,0,1,.47-2.07L13,.35h4.38l3.29,11.88c.17.59.33,1.24.47,2s.28,1.45.38,2.19h0c.1-.74.22-1.45.35-2.13s.27-1.33.44-2L25.24.35h4.12Z"/><path class="cls-1" d="M35.38,21.73V.35H47V3.8H39.49V9h7.13v3.39H39.49v5.79H47v3.52Z"/><path class="cls-1" d="M69,15.14a7.06,7.06,0,0,1-.43,2.36,5.63,5.63,0,0,1-1.44,2.14,7.85,7.85,0,0,1-2.66,1.55,12,12,0,0,1-4.06.6l-2.6,0c-1.09,0-2.32,0-3.67,0V.38c.91,0,2-.08,3.25-.11S60,.22,61.26.22a8.9,8.9,0,0,1,5.3,1.36,4.57,4.57,0,0,1,1.85,3.93,5.07,5.07,0,0,1-.84,2.88,5,5,0,0,1-2.39,1.9v.07a4.6,4.6,0,0,1,1.67.66,5,5,0,0,1,1.2,1.13,4.45,4.45,0,0,1,.73,1.42A5.3,5.3,0,0,1,69,15.14Zm-5-9a2.5,2.5,0,0,0-.77-1.92,3.94,3.94,0,0,0-2.66-.71H59.36l-1.08,0V9.19c.25,0,.51,0,.77,0H60A4.79,4.79,0,0,0,63,8.41,2.71,2.71,0,0,0,64,6.18Zm.6,9A2.36,2.36,0,0,0,63.36,13a6.89,6.89,0,0,0-3.28-.68h-.85c-.4,0-.72,0-.95,0v6a9.3,9.3,0,0,0,1,.09q.59,0,1.32,0a4.63,4.63,0,0,0,3-.86A2.91,2.91,0,0,0,64.61,15.22Z"/><path class="cls-1" d="M98.79,21.73,97.3,17.36H89.22l-1.49,4.37H83.58L91.06.35h4.65l7.64,21.38ZM94.13,8c-.19-.52-.36-1-.51-1.52s-.27-1-.38-1.42h0c-.12.46-.26.94-.39,1.42s-.3,1-.46,1.52l-2.13,6.08h6Z"/><path class="cls-1" d="M121.15,21.73l-6.27-10.8c-.47-.81-.89-1.6-1.27-2.38s-.73-1.52-1-2.22c0,.47,0,1,.08,1.64s.06,1.28.07,2,0,1.4,0,2.12,0,1.39,0,2v7.64h-4V.35h5.36l5.95,10.2c.49.82,1,1.67,1.38,2.53s.85,1.7,1.25,2.5c0-.52-.08-1.15-.11-1.87s0-1.46-.06-2.24,0-1.56,0-2.33,0-1.49,0-2.14V.35h4V21.73Z"/><path class="cls-1" d="M152.41,10.67a12.73,12.73,0,0,1-.86,4.85,9.39,9.39,0,0,1-2.42,3.5,10.19,10.19,0,0,1-3.74,2.12,15,15,0,0,1-4.76.71c-1.12,0-2.17,0-3.14,0l-2.82-.11V.38c.85,0,1.88-.08,3.09-.11s2.49-.05,3.82-.05a16.44,16.44,0,0,1,4.48.57,8.44,8.44,0,0,1,3.42,1.84,8.27,8.27,0,0,1,2.17,3.25A13.3,13.3,0,0,1,152.41,10.67ZM148,11a12,12,0,0,0-.37-3.07,5.85,5.85,0,0,0-1.16-2.31,4.84,4.84,0,0,0-2.07-1.44,8.55,8.55,0,0,0-3.11-.5l-1.37,0c-.42,0-.8,0-1.14.08V18.18c.3,0,.64.08,1,.11s.8.05,1.23.05a8.59,8.59,0,0,0,2.79-.43,5.68,5.68,0,0,0,2.2-1.33,6.27,6.27,0,0,0,1.44-2.3A9.26,9.26,0,0,0,148,11Z"/><path class="cls-1" d="M189.4,21.73l-1.52-10.2c-.17-1-.3-1.88-.39-2.72s-.19-1.64-.27-2.38h-.07c-.14.68-.3,1.39-.47,2.14A23.08,23.08,0,0,1,186,11l-3.39,10.74h-4.08l-3.27-10c-.29-.91-.55-1.8-.77-2.68s-.42-1.75-.59-2.64h-.06c-.06,1-.15,1.86-.25,2.72s-.23,1.78-.35,2.73L172,21.73h-4.18L171.13.35h4.81l3.58,11c.21.63.42,1.33.62,2.09s.39,1.56.58,2.41h0c.17-.83.34-1.58.53-2.27s.42-1.41.67-2.17l3.67-11h4.79l3.32,21.38Z"/><path class="cls-1" d="M219,10.74a12.89,12.89,0,0,1-.83,4.75,10.83,10.83,0,0,1-2.23,3.56,9.54,9.54,0,0,1-3.31,2.25,10.68,10.68,0,0,1-4.09.78,11.23,11.23,0,0,1-4.27-.75,7.62,7.62,0,0,1-3-2.15,9.21,9.21,0,0,1-1.81-3.41,15.48,15.48,0,0,1-.6-4.46,12.82,12.82,0,0,1,.82-4.75A10.47,10.47,0,0,1,201.88,3,9.66,9.66,0,0,1,205.21.78a10.58,10.58,0,0,1,4-.78,11.41,11.41,0,0,1,3.91.65,8,8,0,0,1,3.09,2,8.91,8.91,0,0,1,2,3.34A14.17,14.17,0,0,1,219,10.74Zm-4.41.31a8.81,8.81,0,0,0-1.45-5.46,5,5,0,0,0-4.25-1.88,5.29,5.29,0,0,0-2.14.44,5.15,5.15,0,0,0-1.8,1.33,6.65,6.65,0,0,0-1.25,2.23,9.4,9.4,0,0,0-.48,3.15,12.77,12.77,0,0,0,.34,3.09,6.73,6.73,0,0,0,1,2.35,5,5,0,0,0,1.76,1.5,5.44,5.44,0,0,0,2.49.54,5.57,5.57,0,0,0,2.07-.41,5.2,5.2,0,0,0,1.86-1.3,6.68,6.68,0,0,0,1.33-2.27A9.77,9.77,0,0,0,214.58,11.05Z"/><path class="cls-1" d="M240.27,15.14a6.82,6.82,0,0,1-.43,2.36,5.41,5.41,0,0,1-1.44,2.14,7.66,7.66,0,0,1-2.66,1.55,11.93,11.93,0,0,1-4.05.6l-2.6,0c-1.1,0-2.32,0-3.67,0V.38c.9,0,2-.08,3.24-.11s2.54-.05,3.85-.05a8.94,8.94,0,0,1,5.31,1.36,4.59,4.59,0,0,1,1.85,3.93,5,5,0,0,1-3.23,4.78v.07a4.55,4.55,0,0,1,1.66.66,4.84,4.84,0,0,1,1.21,1.13,4.64,4.64,0,0,1,.72,1.42A5.3,5.3,0,0,1,240.27,15.14Zm-5-9a2.47,2.47,0,0,0-.78-1.92,3.92,3.92,0,0,0-2.66-.71h-1.21l-1.09,0V9.19c.26,0,.51,0,.78,0h.89a4.8,4.8,0,0,0,3.09-.81A2.74,2.74,0,0,0,235.27,6.18Zm.6,9A2.36,2.36,0,0,0,234.62,13a6.92,6.92,0,0,0-3.28-.68h-.86c-.4,0-.71,0-.95,0v6c.26,0,.58.07,1,.09s.83,0,1.31,0a4.61,4.61,0,0,0,3-.86A2.89,2.89,0,0,0,235.87,15.22Z"/><path class="cls-1" d="M247.21,21.73V.35h4.11V21.73Z"/><path class="cls-1" d="M259.53,21.73V.35h4.11V18.12h6.94v3.61Z"/><path class="cls-1" d="M276.28,21.73V.35h11.63V3.8H280.4V9h7.13v3.39H280.4v5.79h7.51v3.52Z"/><path class="cls-1" d="M20,48.68a12.77,12.77,0,0,1-.85,4.85A9.42,9.42,0,0,1,16.67,57a10.23,10.23,0,0,1-3.73,2.12,15.11,15.11,0,0,1-4.77.71c-1.12,0-2.16,0-3.14,0s-1.91-.07-2.81-.12V38.39c.84,0,1.87-.08,3.08-.11s2.49-.05,3.82-.05a16.39,16.39,0,0,1,4.48.57A8.44,8.44,0,0,1,17,40.64a8.12,8.12,0,0,1,2.17,3.24A13.35,13.35,0,0,1,20,48.68Zm-4.4.32a11.53,11.53,0,0,0-.37-3.07A6,6,0,0,0,14,43.61,5,5,0,0,0,12,42.17a8.88,8.88,0,0,0-3.12-.49l-1.36,0c-.43,0-.81,0-1.15.08V56.19c.3,0,.64.08,1,.11s.8.05,1.22.05a8.89,8.89,0,0,0,2.8-.43,5.77,5.77,0,0,0,2.19-1.33A6.29,6.29,0,0,0,15,52.29,9.31,9.31,0,0,0,15.55,49Z"/><path class="cls-1" d="M26.51,59.74V38.36H38.13v3.45h-7.5V47h7.12v3.38H30.63v5.8h7.5v3.52Z"/><path class="cls-1" d="M57.87,53.17a6.27,6.27,0,0,1-.61,2.76,6.73,6.73,0,0,1-1.67,2.19A8,8,0,0,1,53,59.56a10.42,10.42,0,0,1-3.38.52,19.17,19.17,0,0,1-4.94-.57l.45-3.95a12,12,0,0,0,2.2.68,12.74,12.74,0,0,0,2.45.23,6.14,6.14,0,0,0,1.38-.15,3.47,3.47,0,0,0,1.14-.5,2.42,2.42,0,0,0,.77-.85,2.66,2.66,0,0,0,.29-1.28,2.09,2.09,0,0,0-.67-1.62A6.12,6.12,0,0,0,51,51c-.67-.3-1.39-.59-2.17-.87a10.08,10.08,0,0,1-2.17-1.11A5.71,5.71,0,0,1,45,47.29a5.32,5.32,0,0,1-.67-2.85,6.22,6.22,0,0,1,.54-2.61,5.59,5.59,0,0,1,1.58-2A7.68,7.68,0,0,1,49,38.48,11.68,11.68,0,0,1,52.45,38a16.61,16.61,0,0,1,1.92.11,18.36,18.36,0,0,1,1.94.3L55.93,42a12.43,12.43,0,0,0-1.8-.44,10.57,10.57,0,0,0-1.87-.16,4.15,4.15,0,0,0-2.66.71A2.32,2.32,0,0,0,48.74,44a2,2,0,0,0,.68,1.54,7,7,0,0,0,1.69,1c.67.31,1.41.61,2.2.91a9.37,9.37,0,0,1,2.19,1.16,6.15,6.15,0,0,1,1.69,1.79A5.13,5.13,0,0,1,57.87,53.17Z"/><path class="cls-1" d="M64.39,59.74V38.36h4.12V59.74Z"/><path class="cls-1" d="M89.65,59.7a20.34,20.34,0,0,1-3.82.35,13.14,13.14,0,0,1-4.54-.73,9.28,9.28,0,0,1-3.41-2.09,8.89,8.89,0,0,1-2.12-3.31A12.31,12.31,0,0,1,75,49.54a12.7,12.7,0,0,1,.83-4.63,10.12,10.12,0,0,1,2.37-3.64A11.06,11.06,0,0,1,82,38.9,13.47,13.47,0,0,1,86.91,38a19.52,19.52,0,0,1,3.21.25A19.74,19.74,0,0,1,93,39l-.82,3.74a14.79,14.79,0,0,0-5.48-1,8.13,8.13,0,0,0-2.9.5,6.11,6.11,0,0,0-2.27,1.44A6.58,6.58,0,0,0,80,46a8.93,8.93,0,0,0-.52,3.19,7.43,7.43,0,0,0,1.77,5.3,6.57,6.57,0,0,0,5,1.89A9.31,9.31,0,0,0,89,56V48.52h4.12v10.2A18.3,18.3,0,0,1,89.65,59.7Z"/><path class="cls-1" d="M113,59.74l-6.27-10.8c-.47-.81-.89-1.6-1.27-2.38s-.73-1.52-1-2.22c0,.47,0,1,.08,1.63s0,1.29.06,2,0,1.41,0,2.13,0,1.39,0,2v7.64h-4V38.36H106L112,48.56c.49.82,1,1.66,1.38,2.53s.85,1.7,1.25,2.5c0-.53-.08-1.15-.11-1.87s0-1.46-.06-2.25l0-2.32c0-.77,0-1.49,0-2.14V38.36h4V59.74Z"/><path class="cls-1" d="M149.05,59.74l-1.49-4.37h-8.07L138,59.74h-4.15l7.47-21.38H146l7.63,21.38ZM144.4,46c-.19-.53-.36-1-.51-1.52s-.27-1-.38-1.42h0c-.13.46-.26.94-.4,1.42s-.29,1-.46,1.52L140.5,52.1h6Z"/><path class="cls-1" d="M171.41,59.74l-6.27-10.8c-.46-.81-.88-1.6-1.26-2.38s-.73-1.52-1-2.22c0,.47,0,1,.08,1.63s.05,1.29.06,2,0,1.41,0,2.13,0,1.39,0,2v7.64h-4V38.36h5.35l6,10.2c.48.82.94,1.66,1.37,2.53s.85,1.7,1.26,2.5c-.05-.53-.08-1.15-.12-1.87s0-1.46-.06-2.25l0-2.32c0-.77,0-1.49,0-2.14V38.36h4V59.74Z"/><path class="cls-1" d="M202.67,48.68a12.77,12.77,0,0,1-.85,4.85A9.51,9.51,0,0,1,199.4,57a10.36,10.36,0,0,1-3.74,2.12,15.11,15.11,0,0,1-4.77.71c-1.12,0-2.16,0-3.13,0s-1.91-.07-2.82-.12V38.39c.84,0,1.87-.08,3.09-.11s2.48-.05,3.81-.05a16.39,16.39,0,0,1,4.48.57,8.37,8.37,0,0,1,3.42,1.84,8.12,8.12,0,0,1,2.17,3.24A13.35,13.35,0,0,1,202.67,48.68Zm-4.4.32a12,12,0,0,0-.36-3.07,6.1,6.1,0,0,0-1.16-2.32,5,5,0,0,0-2.07-1.44,8.86,8.86,0,0,0-3.11-.49l-1.37,0c-.42,0-.81,0-1.14.08V56.19c.29,0,.64.08,1,.11s.8.05,1.22.05a8.89,8.89,0,0,0,2.8-.43,5.69,5.69,0,0,0,2.19-1.33,6.16,6.16,0,0,0,1.45-2.3A9.31,9.31,0,0,0,198.27,49Z"/><path class="cls-1" d="M237,48.68a13,13,0,0,1-.85,4.85,9.53,9.53,0,0,1-2.43,3.5A10.19,10.19,0,0,1,230,59.15a15,15,0,0,1-4.76.71c-1.12,0-2.17,0-3.14,0s-1.91-.07-2.82-.12V38.39c.85,0,1.88-.08,3.09-.11s2.49-.05,3.82-.05a16.44,16.44,0,0,1,4.48.57,8.44,8.44,0,0,1,3.42,1.84,8.23,8.23,0,0,1,2.17,3.24A13.35,13.35,0,0,1,237,48.68Zm-4.4.32a11.53,11.53,0,0,0-.37-3.07,6,6,0,0,0-1.16-2.32,5,5,0,0,0-2.06-1.44,8.88,8.88,0,0,0-3.12-.49l-1.37,0c-.42,0-.8,0-1.14.08V56.19c.3,0,.64.08,1,.11s.8.05,1.23.05a8.82,8.82,0,0,0,2.79-.43,5.8,5.8,0,0,0,2.2-1.33,6.27,6.27,0,0,0,1.44-2.3A9.3,9.3,0,0,0,232.64,49Z"/><path class="cls-1" d="M243.6,59.74V38.36h11.62v3.45h-7.51V47h7.13v3.38h-7.13v5.8h7.51v3.52Z"/><path class="cls-1" d="M272.17,59.74h-4.75L260,38.36h4.5l4.15,12.51c.21.61.43,1.28.65,2s.42,1.43.58,2.11h.07c.17-.7.37-1.42.6-2.17s.46-1.49.7-2.21l4.21-12.25h4.21Z"/><path class="cls-1" d="M285.15,59.74V38.36h11.63v3.45h-7.51V47h7.13v3.38h-7.13v5.8h7.51v3.52Z"/><path class="cls-1" d="M303.94,59.74V38.36h4.11V56.13H315v3.61Z"/><path class="cls-1" d="M339,48.75a13.1,13.1,0,0,1-.82,4.75A10.85,10.85,0,0,1,336,57.06a9.54,9.54,0,0,1-3.31,2.25,10.62,10.62,0,0,1-4.08.77,11.29,11.29,0,0,1-4.28-.74,7.79,7.79,0,0,1-3-2.15,9.34,9.34,0,0,1-1.8-3.41,15.13,15.13,0,0,1-.61-4.46,12.91,12.91,0,0,1,.83-4.76A10.52,10.52,0,0,1,321.93,41a9.79,9.79,0,0,1,3.32-2.24,10.78,10.78,0,0,1,4.06-.77,11.5,11.5,0,0,1,3.91.65,8.12,8.12,0,0,1,3.09,2,9.09,9.09,0,0,1,2,3.34A14.44,14.44,0,0,1,339,48.75Zm-4.4.31a8.79,8.79,0,0,0-1.46-5.46,5,5,0,0,0-4.24-1.89,5.27,5.27,0,0,0-2.14.45A5,5,0,0,0,325,43.49a6.73,6.73,0,0,0-1.25,2.23,9.41,9.41,0,0,0-.47,3.15,13.31,13.31,0,0,0,.33,3.09,6.43,6.43,0,0,0,1,2.34,4.75,4.75,0,0,0,1.76,1.51,5.37,5.37,0,0,0,2.48.54,5.66,5.66,0,0,0,2.08-.41,5.25,5.25,0,0,0,1.85-1.3,6.68,6.68,0,0,0,1.33-2.27A9.56,9.56,0,0,0,334.63,49.06Z"/><path class="cls-1" d="M359.33,44.85a7.44,7.44,0,0,1-.57,2.91,6.53,6.53,0,0,1-1.66,2.36,7.83,7.83,0,0,1-2.65,1.57,10,10,0,0,1-3.48.57h-.65a4.71,4.71,0,0,1-.74-.06v7.54h-4.12V38.36c.88,0,1.8-.08,2.74-.1s1.93,0,3,0A9.28,9.28,0,0,1,357.24,40,6,6,0,0,1,359.33,44.85Zm-4.27.28a3.45,3.45,0,0,0-1-2.56,4.25,4.25,0,0,0-3.06-1h-.74c-.24,0-.48,0-.71,0v7.13a8.08,8.08,0,0,0,1.2.09,4.83,4.83,0,0,0,3.09-1A3.36,3.36,0,0,0,355.06,45.13Z"/><path class="cls-1" d="M385.11,59.74l-1.52-10.2q-.25-1.45-.39-2.73t-.27-2.37h-.07c-.14.67-.3,1.39-.47,2.14a23.08,23.08,0,0,1-.7,2.42L378.3,59.74h-4.08l-3.26-10c-.3-.91-.56-1.8-.78-2.68s-.42-1.76-.59-2.64h-.06c-.06,1-.15,1.86-.25,2.72s-.22,1.78-.35,2.73l-1.2,9.85h-4.19l3.3-21.38h4.81l3.58,11c.21.63.42,1.33.62,2.09s.4,1.56.59,2.41h0c.17-.83.35-1.58.54-2.27s.41-1.41.66-2.17l3.68-11h4.78l3.32,21.38Z"/><path class="cls-1" d="M395.82,59.74V38.36h11.62v3.45h-7.5V47h7.12v3.38h-7.12v5.8h7.5v3.52Z"/><path class="cls-1" d="M427,59.74l-6.28-10.8c-.46-.81-.88-1.6-1.26-2.38s-.73-1.52-1.05-2.22c0,.47.05,1,.08,1.63s0,1.29.06,2,0,1.41,0,2.13,0,1.39,0,2v7.64h-4V38.36H420l6,10.2c.48.82.94,1.66,1.38,2.53l1.25,2.5c0-.53-.08-1.15-.11-1.87s-.06-1.46-.07-2.25l0-2.32c0-.77,0-1.49,0-2.14V38.36h4V59.74Z"/><path class="cls-1" d="M447.64,41.87V59.74h-4.12V41.87H438V38.36h15.2v3.51Z"/></g></g></svg>